<svg id="レイヤー_5" data-name="レイヤー 5" xmlns="http://www.w3.org/2000/svg" viewBox="0 0 365.72 252"><defs><style>.cls-1{fill:#fff;}</style></defs><title>logo</title><path class="cls-1" d="M1125,567V549h-18V531h-18V513h18V477h-36v18h-18V477h-18V459H981v18h18v18H945v18h18v36H945v36H927v36H909v36H891v54h36V693h36V675h18V657h36V639h2a19.23,19.23,0,0,1,2.16-8.66,15.46,15.46,0,0,1,6.09-6.32,17.36,17.36,0,0,1,7.7-2.19V621h36V603h18v18h18V585h36V567ZM940.38,640.54q0,8-3.67,12c-2.46,2.6-6.23,3.91-11.34,3.91q-7.14,0-10.84-3.91t-3.7-11.78V622.35H921V641.1a8.7,8.7,0,0,0,1.2,5,4.37,4.37,0,0,0,6.89.1,8.2,8.2,0,0,0,1.18-4.83v-19h10.15Zm30.4-8.38a11.94,11.94,0,0,0-3.34-1.31,16.75,16.75,0,0,0-3.92-.47,8.79,8.79,0,0,0-6.48,2.36,8.61,8.61,0,0,0-2.37,6.4,8.46,8.46,0,0,0,2.37,6.33,8.65,8.65,0,0,0,6.34,2.32,16.51,16.51,0,0,0,7.4-1.86v9a28.21,28.21,0,0,1-9.6,1.5,19.5,19.5,0,0,1-9.21-2,14,14,0,0,1-5.92-5.82,18,18,0,0,1-2-8.69,19.19,19.19,0,0,1,2.28-9.43,15.84,15.84,0,0,1,6.47-6.38,19.94,19.94,0,0,1,9.61-2.26,33.47,33.47,0,0,1,8.41,1.05Zm30.88-1.92h-9.47v25.58H982.06V630.24H972.7v-7.89h29ZM1015,655.82H1005V622.35H1015Z" transform="translate(-777.28 -459)"/><path class="cls-1" d="M1035,630.48a5.37,5.37,0,0,0-3.57,2.19,10.69,10.69,0,0,0-1.67,6.33H1035Z" transform="translate(-777.28 -459)"/><path class="cls-1" d="M801.36,625q-3.29-2.68-10.36-2.69H777.28v33.47h10.08V645.06h3.08a18.08,18.08,0,0,0,7.5-1.45,11.45,11.45,0,0,0,5-4.12,11,11,0,0,0,1.73-6.1Q804.63,627.72,801.36,625Zm-11.73,12.81h-2.27v-8.26h1.92a5.15,5.15,0,0,1,3.5,1,3.94,3.94,0,0,1,1.19,3.11Q794,637.85,789.63,637.85Z" transform="translate(-777.28 -459)"/><path class="cls-1" d="M830.82,642.94a8.09,8.09,0,0,0-3.54-2.12v-.1a11.07,11.07,0,0,0,5.8-3.38,8.74,8.74,0,0,0,1.95-5.79,7.84,7.84,0,0,0-3.35-6.9q-3.34-2.29-10.37-2.3h-13.4v33.47H818V644.06h.4a3.46,3.46,0,0,1,2.51,1.21,9.15,9.15,0,0,1,1.88,3.34l2.49,7.21h11.37l-3.29-8.52A13.29,13.29,0,0,0,830.82,642.94Zm-7.74-7.09a4.64,4.64,0,0,1-3.27,1.14H818v-7.66h2.08a4.56,4.56,0,0,1,3.22,1,3.53,3.53,0,0,1,1,2.66A3.78,3.78,0,0,1,823.08,635.85Z" transform="translate(-777.28 -459)"/><path class="cls-1" d="M863.71,623.93a17.28,17.28,0,0,0-8.6-2.14,17.81,17.81,0,0,0-8.92,2.23,15.46,15.46,0,0,0-6.09,6.32,19.24,19.24,0,0,0-2.17,9.19,17.66,17.66,0,0,0,2.15,8.74,15,15,0,0,0,6,6,18.29,18.29,0,0,0,17.3-.07,15.49,15.49,0,0,0,6.07-6.18,18.51,18.51,0,0,0,2.17-9,19.2,19.2,0,0,0-2.06-9A14.53,14.53,0,0,0,863.71,623.93Zm-3.54,19.9a6.56,6.56,0,0,1-2.17,2.94,5.2,5.2,0,0,1-3.15,1,5.33,5.33,0,0,1-4.54-2.28,10.67,10.67,0,0,1-1.67-6.37,10.78,10.78,0,0,1,1.68-6.47,5.51,5.51,0,0,1,4.69-2.29,5,5,0,0,1,4.35,2.38,11.71,11.71,0,0,1,1.58,6.52A12,12,0,0,1,860.17,643.83Z" transform="translate(-777.28 -459)"/><path class="cls-1" d="M905.07,647.67a18.42,18.42,0,0,0,2.14-9q0-16.32-17.69-16.32H875.65v33.47h14.17A19,19,0,0,0,899,653.7,14.71,14.71,0,0,0,905.07,647.67Zm-10.73-2.22a7.27,7.27,0,0,1-5.78,2.49h-2.82v-17.7h2.59a8.45,8.45,0,0,1,4.34,1.08,7.09,7.09,0,0,1,2.83,3,9.54,9.54,0,0,1,1,4.41A9.86,9.86,0,0,1,894.34,645.45Z" transform="translate(-777.28 -459)"/><path class="cls-1" d="M1036.13,630.38a5,5,0,0,1,4.34,2.38,11.71,11.71,0,0,1,1.58,6.52,12,12,0,0,1-.77,4.55,6.56,6.56,0,0,1-2.17,2.94,5.2,5.2,0,0,1-3.15,1,5.33,5.33,0,0,1-4.54-2.28,10.67,10.67,0,0,1-1.67-6.37s0-.09,0-.14h-10.71c0,.18,0,.35,0,.53a17.66,17.66,0,0,0,2.15,8.74,15,15,0,0,0,6,6,18.29,18.29,0,0,0,17.3-.07,15.43,15.43,0,0,0,6.07-6.18,18.51,18.51,0,0,0,2.17-9,19.2,19.2,0,0,0-2.06-9,14.53,14.53,0,0,0-5.86-6.09,17.28,17.28,0,0,0-8.6-2.14c-.41,0-.82,0-1.22,0v8.65A6.79,6.79,0,0,1,1036.13,630.38Z" transform="translate(-777.28 -459)"/><path class="cls-1" d="M1079.66,637.36a31.12,31.12,0,0,0,.14,3.55h-.09a5.85,5.85,0,0,0-.41-.75l-.57-.86-.61-.86-.51-.73-11.32-15.36h-9.53v33.47h9.34V641.77c0-2,0-3.9-.14-5.55h.09a37.81,37.81,0,0,0,2.29,3.45l11.81,16.15H1089V622.35h-9.34Z" transform="translate(-777.28 -459)"/><path class="cls-1" d="M825.13,564.14h10.26v4.27H825.13v11.35a5.68,5.68,0,0,0,1.89,4.7,7.62,7.62,0,0,0,5,1.53h3.42v4.27H800V586h3.41q7.08,0,7.08-6.23V568.41h-33.2v-4.27q8.79-7.46,17.33-22.95,10.26-18.56,10.26-33.45h20.26q0,11.47-12.75,29.78t-25.7,25l-3,1.59h26.85V546.92l14.65-20.14Z" transform="translate(-777.28 -459)"/><path class="cls-1" d="M839.39,605.36v-4.27h2.69q3.66,0,4.82-1.59t1.16-5.86v-56l-10.38,15.75-2.32-1.71,12.7-28.57h14.65v70.56c0,2.85.36,4.8,1.1,5.86s2.36,1.59,4.88,1.59h2.69v4.27Z" transform="translate(-777.28 -459)"/><path class="cls-1" d="M874.91,497.43q5,1,8.18,1.34a119.45,119.45,0,0,0,16.36,1.47,127,127,0,0,0,19-1.34,56.29,56.29,0,0,0,7.08-1.47q-2.8,8.55-7.08,11.84-7.08,5.63-19,5.62a81.18,81.18,0,0,1-12.33-1c-4.23-.65-6.88-1.34-7.93-2.07v21.85A22.73,22.73,0,0,1,886,529.9a34.34,34.34,0,0,1,12.7-2.56q13.92,0,21.48,5.86,8.31,6.46,8.3,19.41,0,12.2-6.71,19.28Q914.1,580,898.84,580q-13.3,0-19.78-3.66Q871.5,572,871.5,562q0-4.51,2.56-7a9.5,9.5,0,0,1,6.84-2.44q4.76,0,7.2,2.13c1.63,1.43,2.44,3.68,2.44,6.78a8.28,8.28,0,0,1-2.2,5.74,7.24,7.24,0,0,1-5.61,2.44,8.71,8.71,0,0,1-2.32-.37c.81,1,1.66,1.95,2.56,2.93q3.66,3.42,13.18,3.42,6.72,0,11.36-5.74,5.13-6.35,5.12-17.09,0-9.52-3.78-15-4.27-6.23-12.45-6.23a22.56,22.56,0,0,0-10,2.69,29.12,29.12,0,0,0-7.2,4.88h-4.28Z" transform="translate(-777.28 -459)"/></svg>