<svg xmlns="http://www.w3.org/2000/svg" viewBox="0 0 500 500"><defs><style>.cls-1{fill:#fff;}</style></defs><title>アセット 1</title><g id="レイヤー_2" data-name="レイヤー 2"><g id="レイヤー_1-2" data-name="レイヤー 1"><path class="cls-1" d="M250,0C111.93,0,0,111.93,0,250S111.93,500,250,500,500,388.07,500,250,388.07,0,250,0Zm0,475C125.74,475,25,374.26,25,250S125.74,25,250,25,475,125.74,475,250,374.26,475,250,475Z"/><path class="cls-1" d="M182.72,258.41l-33.63,33.64,16.81,16.82-16.81,16.82-16.82-16.82-16.82,16.82,33.64,33.63L115.45,393l16.82,16.82L149.09,393l16.81,16.82L182.72,393l16.82,16.82L216.36,393l16.82,16.82L216.36,426.6,250,460.24l33.64-33.64-16.82-16.82L283.64,393l16.82,16.82L317.28,393l16.82,16.82,50.45-50.46L367.73,342.5l-16.82,16.82L334.1,342.5l50.45-50.45-16.82-16.82-16.82,16.82-33.63-33.64,16.82-16.82L300.46,208l16.82-16.82L283.64,157.5l16.82-16.82L266.82,107l16.82-16.82L233.18,39.76,199.54,73.4l16.82,16.82-33.64,33.64,16.82,16.82L182.72,157.5l16.82,16.81L165.9,208l16.82,16.82L165.9,241.59Z"/></g></g></svg>